<?xml version="1.0" encoding="UTF-8" standalone="no"?>
<!-- Created with Inkscape (http://www.inkscape.org/) -->

<svg
   xmlns:dc="http://purl.org/dc/elements/1.1/"
   xmlns:cc="http://creativecommons.org/ns#"
   xmlns:rdf="http://www.w3.org/1999/02/22-rdf-syntax-ns#"
   xmlns:svg="http://www.w3.org/2000/svg"
   xmlns="http://www.w3.org/2000/svg"
   xmlns:xlink="http://www.w3.org/1999/xlink"
   xmlns:sodipodi="http://sodipodi.sourceforge.net/DTD/sodipodi-0.dtd"
   xmlns:inkscape="http://www.inkscape.org/namespaces/inkscape"
   width="128"
   height="128"
   viewBox="0 0 33.866668 33.866666"
   version="1.1"
   id="svg8"
   inkscape:version="0.92.4 (5da689c313, 2019-01-14)"
   sodipodi:docname="brava-no-text.svg">
  <defs
     id="defs2"><rect
   height="38.810001"
   width="542.00201"
   y="3444.3401"
   x="2025"
   id="SVGID_1_" />
<rect
   height="38.810001"
   width="542.00201"
   y="3355.0791"
   x="2310.5901"
   id="SVGID_1_-8" />

	
	

		<defs
   id="defs3747">
			<rect
   height="38.810001"
   width="542.00201"
   y="3355.0791"
   x="2310.5901"
   id="rect3767" />

		</defs>

		<clipPath
   id="SVGID_2_-2">
			<use
   id="use3749"
   overflow="visible"
   xlink:href="#SVGID_1_-8"
   style="overflow:visible"
   x="0"
   y="0"
   width="100%"
   height="100%" />

		</clipPath>

		
	</defs>
  <sodipodi:namedview
     id="base"
     pagecolor="#ffffff"
     bordercolor="#666666"
     borderopacity="1.0"
     inkscape:pageopacity="0.0"
     inkscape:pageshadow="2"
     inkscape:zoom="2.8"
     inkscape:cx="128.68842"
     inkscape:cy="64.184101"
     inkscape:document-units="mm"
     inkscape:current-layer="g3725"
     showgrid="false"
     units="px"
     inkscape:window-width="958"
     inkscape:window-height="1008"
     inkscape:window-x="953"
     inkscape:window-y="0"
     inkscape:window-maximized="0" />
  <metadata
     id="metadata5">
    <rdf:RDF>
      <cc:Work
         rdf:about="">
        <dc:format>image/svg+xml</dc:format>
        <dc:type
           rdf:resource="http://purl.org/dc/dcmitype/StillImage" />
        <dc:title></dc:title>
      </cc:Work>
    </rdf:RDF>
  </metadata>
  <g
     inkscape:label="Capa 1"
     inkscape:groupmode="layer"
     id="layer1"
     transform="translate(-67.975313,-125.93448)">
    <g
       id="g3725"
       transform="matrix(0.26458333,0,0,0.26458333,-525.10145,-747.40667)">
	<path
   id="path3713"
   d="m 2369.55,3364.8535 v 0 0 c 0,17.645 -6.2577,32.7126 -18.7743,45.2066 v 0 0 c -12.5296,12.5034 -27.6168,18.7569 -45.2615,18.7569 v 0 0 c -17.6813,0 -32.7626,-6.2535 -45.2428,-18.7569 v 0 0 c -12.4813,-12.4928 -18.7214,-27.5616 -18.7214,-45.2066 v 0 -55.4367 0 c 5.9133,3.4112 11.2472,7.7706 15.9993,13.0794 v 0 0 c 5.878,-6.628 12.9468,-11.9003 21.2062,-15.8192 v 0 0 c 8.2723,-3.9059 17.1911,-5.86 26.7575,-5.86 v 0 0 c 17.6448,0 32.7319,6.2582 45.2615,18.7757 v 0 0 c 12.5178,12.5305 18.7755,27.6171 18.7755,45.2608 z m -95.9815,0 v 0 0 c 0,8.8402 3.1136,16.3752 9.3431,22.6027 v 0 0 c 6.2283,6.2288 13.7625,9.342 22.6026,9.342 v 0 0 c 8.8047,0 16.346,-3.1144 22.6225,-9.342 v 0 0 c 6.2648,-6.2287 9.396,-13.7625 9.396,-22.6027 v 0 0 c 0,-8.8036 -3.1312,-16.3445 -9.396,-22.6204 v 0 0 c -6.2765,-6.264 -13.8178,-9.3973 -22.6225,-9.3973 v 0 0 c -8.8401,0 -16.3754,3.1321 -22.6026,9.3973 v 0 0 c -6.2295,6.2759 -9.3431,13.8168 -9.3431,22.6204 z"
   inkscape:connector-curvature="0"
   style="fill:#e51b23;stroke-width:1.17663896" />

	<g
   id="g3723">
		<defs
   id="defs3716">
			<rect
   height="38.810001"
   width="542.00201"
   y="3444.3401"
   x="2025"
   id="rect3736" />

		</defs>

		<clipPath
   id="SVGID_2_">
			<use
   id="use3718"
   overflow="visible"
   xlink:href="#SVGID_1_"
   style="overflow:visible"
   x="0"
   y="0"
   width="100%"
   height="100%" />

		</clipPath>

		
	</g>

</g>
  </g>
</svg>
