<svg width="462px" height="56px" viewBox="0 0 462 56" version="1.1" xmlns="http://www.w3.org/2000/svg" xmlns:xlink="http://www.w3.org/1999/xlink">
    <defs>
        <rect id="path-1" x="0" y="0" width="463" height="56"></rect>
        <rect id="path-3" x="0.59" y="0.079" width="542.002" height="38.81"></rect>
    </defs>
    <g id="Page-1" stroke="none" stroke-width="1" fill="none" fill-rule="evenodd">
        <g id="SVG-Layer">
            <mask id="mask-2" fill="white">
                <use xlink:href="#path-1"></use>
            </mask>
            <g id="Mask"></g>
            <g mask="url(#mask-2)" id="Layer_1">
                <g transform="translate(-4.000000, 0.000000)">
                    <g>
                        <g id="Group">
                            <path d="M60.104,28.115 L60.104,28.115 L60.104,28.115 C60.104,35.739 57.394,42.251 51.975,47.649 L51.975,47.649 L51.975,47.649 C46.548,53.052 40.015,55.753 32.374,55.753 L32.374,55.753 L32.374,55.753 C24.717,55.753 18.187,53.051 12.782,47.649 L12.782,47.649 L12.782,47.649 C7.378,42.251 4.676,35.739 4.676,28.115 L4.676,28.115 L4.676,4.16 L4.676,4.16 C7.237,5.634 9.545,7.517 11.604,9.812 L11.604,9.812 L11.604,9.812 C14.15,6.948 17.209,4.67 20.788,2.977 L20.788,2.977 L20.788,2.977 C24.37,1.289 28.233,0.445 32.375,0.445 L32.375,0.445 L32.375,0.445 C40.016,0.445 46.549,3.15 51.976,8.558 L51.976,8.558 L51.976,8.558 C57.394,13.972 60.104,20.491 60.104,28.115 L60.104,28.115 Z M18.54,28.115 L18.54,28.115 L18.54,28.115 C18.54,31.934 19.889,35.19 22.586,37.882 L22.586,37.882 L22.586,37.882 C25.282,40.573 28.546,41.918 32.374,41.918 L32.374,41.918 L32.374,41.918 C36.186,41.918 39.451,40.573 42.17,37.882 L42.17,37.882 L42.17,37.882 C44.883,35.19 46.239,31.934 46.239,28.115 L46.239,28.115 L46.239,28.115 C46.239,24.31 44.883,21.052 42.17,18.34 L42.17,18.34 L42.17,18.34 C39.451,15.633 36.186,14.28 32.374,14.28 L32.374,14.28 L32.374,14.28 C28.546,14.28 25.282,15.633 22.586,18.34 L22.586,18.34 L22.586,18.34 C19.889,21.052 18.54,24.311 18.54,28.115 L18.54,28.115 Z" id="Shape" fill="#E51B23" fill-rule="nonzero"></path>
                            <g id="Clipped" transform="translate(0.000000, 8.000000)">
                                <mask id="mask-4" fill="white">
                                    <use xlink:href="#path-3"></use>
                                </mask>
                                <g id="SVGID_1_"></g>
                                <path d="M77.428,31.1 L77.428,31.1 L77.428,7.898 L77.428,7.898 C77.428,6.794 77.48,5.848 77.585,5.059 L77.585,5.059 L77.585,5.059 C77.689,4.27 77.883,3.604 78.163,3.06 L78.163,3.06 L78.163,3.06 C78.443,2.516 78.761,2.083 79.116,1.764 L79.116,1.764 L79.116,1.764 C79.467,1.45 79.954,1.204 80.58,1.03 L80.58,1.03 L80.58,1.03 C81.205,0.856 81.843,0.741 82.493,0.686 L82.493,0.686 L82.493,0.686 C83.144,0.635 83.979,0.611 85,0.611 L85,0.611 L103.629,0.611 L103.629,0.611 C107.447,0.611 110.517,1.545 112.838,3.412 L112.838,3.412 L112.838,3.412 C115.16,5.279 116.32,7.856 116.32,11.141 L116.32,11.141 L116.32,11.141 C116.32,13.178 115.815,14.903 114.804,16.316 L114.804,16.316 L114.804,16.316 C113.788,17.729 112.605,18.68 111.253,19.17 L111.253,19.17 L111.253,19.274 L111.253,19.274 C113.1,19.874 114.586,20.937 115.712,22.464 L115.712,22.464 L115.712,22.464 C116.838,23.986 117.4,25.749 117.4,27.752 L117.4,27.752 L117.4,27.752 C117.4,31.156 116.176,33.777 113.73,35.615 L113.73,35.615 L113.73,35.615 C111.288,37.447 108.008,38.363 103.89,38.363 L103.89,38.363 L85,38.363 L85,38.363 C83.77,38.363 82.789,38.324 82.059,38.244 L82.059,38.244 L82.059,38.244 C81.329,38.164 80.627,37.989 79.957,37.72 L79.957,37.72 L79.957,37.72 C79.291,37.446 78.796,37.041 78.471,36.506 L78.471,36.506 L78.471,36.506 C78.146,35.973 77.891,35.271 77.705,34.402 L77.705,34.402 L77.705,34.402 C77.52,33.534 77.428,32.433 77.428,31.1 L77.428,31.1 Z M85,22.727 L85,29.729 L85,29.729 C85,30.079 85.003,30.321 85.008,30.456 L85.008,30.456 L85.008,30.456 C85.018,30.586 85.055,30.743 85.12,30.928 L85.12,30.928 L85.12,30.928 C85.181,31.113 85.285,31.23 85.435,31.281 L85.435,31.281 L85.435,31.281 C85.585,31.336 85.79,31.363 86.05,31.363 L86.05,31.363 L103.891,31.363 L103.891,31.363 C107.673,31.363 109.566,29.923 109.566,27.042 L109.566,27.042 L109.566,27.042 C109.566,24.166 107.673,22.729 103.891,22.729 L103.891,22.729 L85,22.729 L85,22.727 Z M85,9.246 L85,15.725 L103.366,15.725 L103.366,15.725 C105.142,15.725 106.486,15.369 107.396,14.654 L107.396,14.654 L107.396,14.654 C108.312,13.945 108.77,12.949 108.77,11.666 L108.77,11.666 L108.77,11.666 C108.77,10.348 108.322,9.348 107.426,8.663 L107.426,8.663 L107.426,8.663 C106.53,7.979 105.087,7.637 103.095,7.637 L103.095,7.637 L86.05,7.637 L86.05,7.637 C85.79,7.637 85.585,7.664 85.435,7.72 L85.435,7.72 L85.435,7.72 C85.285,7.77 85.18,7.885 85.12,8.065 L85.12,8.065 L85.12,8.065 C85.056,8.239 85.017,8.391 85.008,8.522 L85.008,8.522 L85.008,8.522 C85.003,8.649 85,8.891 85,9.246 L85,9.246 L85,9.246 Z M126.844,35.129 L126.844,35.129 L126.844,7.898 L126.844,7.898 C126.844,6.794 126.899,5.848 127.009,5.059 L127.009,5.059 L127.009,5.059 C127.113,4.27 127.307,3.604 127.586,3.06 L127.586,3.06 L127.586,3.06 C127.867,2.516 128.182,2.083 128.532,1.764 L128.532,1.764 L128.532,1.764 C128.887,1.45 129.378,1.204 130.003,1.03 L130.003,1.03 L130.003,1.03 C130.624,0.856 131.26,0.741 131.91,0.686 L131.91,0.686 L131.91,0.686 C132.565,0.635 133.4,0.611 134.416,0.611 L134.416,0.611 L150.621,0.611 L150.621,0.611 C154.419,0.611 157.483,1.702 159.815,3.883 L159.815,3.883 L159.815,3.883 C162.146,6.071 163.312,9.024 163.312,12.743 L163.312,12.743 L163.312,12.743 C163.312,15.499 162.574,17.83 161.098,19.738 L161.098,19.738 L161.098,19.738 C159.617,21.64 157.638,23.013 155.161,23.857 L155.161,23.857 L161.81,31.885 L161.81,31.885 C162.441,32.658 162.893,33.313 163.168,33.847 L163.168,33.847 L163.168,33.847 C163.439,34.381 163.573,34.955 163.573,35.57 L163.573,35.57 L163.573,35.57 C163.573,36.504 163.219,37.29 162.508,37.929 L162.508,37.929 L162.508,37.929 C161.792,38.568 160.945,38.888 159.963,38.888 L159.963,38.888 L159.963,38.888 C159.203,38.888 158.512,38.712 157.892,38.363 L157.892,38.363 L157.892,38.363 C157.267,38.014 156.577,37.347 155.821,36.364 L155.821,36.364 L146.792,24.883 L134.415,24.883 L134.415,35.129 L134.415,35.129 C134.415,36.287 134.073,37.203 133.388,37.877 L133.388,37.877 L133.388,37.877 C132.702,38.551 131.779,38.889 130.618,38.889 L130.618,38.889 L130.618,38.889 C129.457,38.889 128.539,38.551 127.863,37.877 L127.863,37.877 L127.863,37.877 C127.184,37.204 126.844,36.288 126.844,35.129 L126.844,35.129 Z M134.416,9.246 L134.416,17.882 L150.065,17.882 L150.065,17.882 C153.847,17.882 155.74,16.169 155.74,12.744 L155.74,12.744 L155.74,12.744 C155.74,9.339 153.847,7.636 150.065,7.636 L150.065,7.636 L135.474,7.636 L135.474,7.636 C135.208,7.636 135.001,7.663 134.851,7.719 L134.851,7.719 L134.851,7.719 C134.706,7.769 134.601,7.884 134.537,8.064 L134.537,8.064 L134.537,8.064 C134.476,8.238 134.441,8.39 134.432,8.521 L134.432,8.521 L134.432,8.521 C134.422,8.649 134.416,8.891 134.416,9.246 L134.416,9.246 L134.416,9.246 Z M171.126,35.391 L171.126,35.391 L171.126,35.391 C171.126,34.722 171.416,33.826 171.996,32.703 L171.996,32.703 L186.85,4.663 L186.85,4.663 C187.871,2.801 188.892,1.572 189.912,0.978 L189.912,0.978 L189.912,0.978 C190.933,0.378 192.111,0.079 193.447,0.079 L193.447,0.079 L193.447,0.079 C194.078,0.079 194.631,0.132 195.105,0.237 L195.105,0.237 L195.105,0.237 C195.581,0.341 196.101,0.544 196.667,0.842 L196.667,0.842 L196.667,0.842 C197.228,1.143 197.785,1.61 198.341,2.243 L198.341,2.243 L198.341,2.243 C198.897,2.872 199.446,3.678 199.992,4.662 L199.992,4.662 L214.95,32.702 L214.95,32.702 C215.496,33.756 215.768,34.651 215.768,35.39 L215.768,35.39 L215.768,35.39 C215.768,36.354 215.43,37.177 214.755,37.862 L214.755,37.862 L214.755,37.862 C214.074,38.546 213.226,38.888 212.21,38.888 L212.21,38.888 L212.21,38.888 C211.294,38.888 210.514,38.667 209.868,38.228 L209.868,38.228 L209.868,38.228 C209.227,37.794 208.617,37.033 208.037,35.945 L208.037,35.945 L204.742,29.728 L182.097,29.728 L178.855,35.945 L178.855,35.945 C178.254,37.013 177.647,37.772 177.032,38.221 L177.032,38.221 L177.032,38.221 C176.416,38.665 175.661,38.888 174.764,38.888 L174.764,38.888 L174.764,38.888 C173.743,38.888 172.881,38.545 172.175,37.862 L172.175,37.862 L172.175,37.862 C171.477,37.178 171.126,36.355 171.126,35.391 L171.126,35.391 Z M193.447,8.219 L185.822,22.727 L201.072,22.727 L193.447,8.219 L193.447,8.219 Z M221.15,3.584 L221.15,3.584 L221.15,3.584 C221.15,2.62 221.493,1.793 222.177,1.105 L222.177,1.105 L222.177,1.105 C222.868,0.42 223.721,0.079 224.738,0.079 L224.738,0.079 L224.738,0.079 C225.653,0.079 226.428,0.304 227.064,0.753 L227.064,0.753 L227.064,0.753 C227.695,1.203 228.3,1.972 228.88,3.061 L228.88,3.061 L243.478,30.756 L258.069,3.061 L258.069,3.061 C258.665,1.988 259.275,1.223 259.9,0.769 L259.9,0.769 L259.9,0.769 C260.526,0.31 261.287,0.08 262.182,0.08 L262.182,0.08 L262.182,0.08 C263.203,0.08 264.061,0.422 264.756,1.106 L264.756,1.106 L264.756,1.106 C265.452,1.794 265.8,2.622 265.8,3.585 L265.8,3.585 L265.8,3.585 C265.8,4.249 265.509,5.143 264.929,6.266 L264.929,6.266 L250.068,34.314 L250.068,34.314 C249.052,36.171 248.035,37.399 247.013,37.999 L247.013,37.999 L247.013,37.999 C245.992,38.593 244.814,38.891 243.478,38.891 L243.478,38.891 L243.478,38.891 C242.843,38.891 242.288,38.838 241.812,38.733 L241.812,38.733 L241.812,38.733 C241.337,38.629 240.819,38.426 240.258,38.127 L240.258,38.127 L240.258,38.127 C239.693,37.833 239.132,37.368 238.577,36.734 L238.577,36.734 L238.577,36.734 C238.026,36.1 237.478,35.294 236.932,34.315 L236.932,34.315 L221.967,6.267 L221.967,6.267 C221.423,5.217 221.15,4.323 221.15,3.584 L221.15,3.584 Z M271.182,35.391 L271.182,35.391 L271.182,35.391 C271.182,34.722 271.472,33.826 272.053,32.703 L272.053,32.703 L286.907,4.663 L286.907,4.663 C287.927,2.801 288.948,1.572 289.968,0.978 L289.968,0.978 L289.968,0.978 C290.989,0.378 292.167,0.079 293.503,0.079 L293.503,0.079 L293.503,0.079 C294.14,0.079 294.694,0.132 295.171,0.237 L295.171,0.237 L295.171,0.237 C295.646,0.341 296.163,0.544 296.724,0.842 L296.724,0.842 L296.724,0.842 C297.288,1.143 297.847,1.61 298.398,2.243 L298.398,2.243 L298.398,2.243 C298.953,2.872 299.503,3.678 300.048,4.662 L300.048,4.662 L315.007,32.702 L315.007,32.702 C315.552,33.756 315.825,34.651 315.825,35.39 L315.825,35.39 L315.825,35.39 C315.825,36.354 315.487,37.177 314.811,37.862 L314.811,37.862 L314.811,37.862 C314.135,38.546 313.288,38.888 312.266,38.888 L312.266,38.888 L312.266,38.888 C311.352,38.888 310.573,38.667 309.932,38.228 L309.932,38.228 L309.932,38.228 C309.287,37.794 308.674,37.033 308.094,35.945 L308.094,35.945 L304.799,29.728 L282.154,29.728 L278.912,35.945 L278.912,35.945 C278.312,37.013 277.703,37.772 277.088,38.221 L277.088,38.221 L277.088,38.221 C276.473,38.665 275.717,38.888 274.822,38.888 L274.822,38.888 L274.822,38.888 C273.801,38.888 272.939,38.545 272.24,37.862 L272.24,37.862 L272.24,37.862 C271.534,37.178 271.182,36.355 271.182,35.391 L271.182,35.391 Z M293.502,8.219 L285.877,22.727 L301.129,22.727 L293.502,8.219 L293.502,8.219 Z M325,31.1 L325,31.1 L325,3.846 L325,3.846 C325,2.688 325.338,1.772 326.014,1.098 L326.014,1.098 L326.014,1.098 C326.69,0.418 327.61,0.078 328.776,0.078 L328.776,0.078 L328.776,0.078 C329.938,0.078 330.86,0.418 331.546,1.098 L331.546,1.098 L331.546,1.098 C332.232,1.772 332.575,2.688 332.575,3.846 L332.575,3.846 L332.575,29.729 L332.575,29.729 C332.575,30.079 332.579,30.321 332.589,30.456 L332.589,30.456 L332.589,30.456 C332.595,30.586 332.63,30.743 332.694,30.928 L332.694,30.928 L332.694,30.928 C332.755,31.113 332.86,31.23 333.01,31.281 L333.01,31.281 L333.01,31.281 C333.158,31.336 333.364,31.363 333.625,31.363 L333.625,31.363 L355.795,31.363 L355.795,31.363 C356.971,31.363 357.897,31.66 358.572,32.254 L358.572,32.254 L358.572,32.254 C359.254,32.854 359.593,33.723 359.593,34.861 L359.593,34.861 L359.593,34.861 C359.593,36.004 359.253,36.873 358.572,37.466 L358.572,37.466 L358.572,37.466 C357.896,38.066 356.97,38.364 355.795,38.364 L355.795,38.364 L332.574,38.364 L332.574,38.364 C331.342,38.364 330.361,38.325 329.631,38.245 L329.631,38.245 L329.631,38.245 C328.901,38.165 328.201,37.99 327.529,37.721 L327.529,37.721 L327.529,37.721 C326.865,37.447 326.369,37.042 326.043,36.507 L326.043,36.507 L326.043,36.507 C325.719,35.974 325.463,35.272 325.277,34.403 L325.277,34.403 L325.277,34.403 C325.094,33.534 325,32.433 325,31.1 L325,31.1 Z M369.434,35.39 L369.434,35.39 L369.434,35.39 C369.434,34.721 369.725,33.825 370.305,32.702 L370.305,32.702 L385.159,4.662 L385.159,4.662 C386.18,2.8 387.2,1.571 388.221,0.977 L388.221,0.977 L388.221,0.977 C389.242,0.377 390.42,0.078 391.756,0.078 L391.756,0.078 L391.756,0.078 C392.391,0.078 392.947,0.131 393.422,0.236 L393.422,0.236 L393.422,0.236 C393.897,0.34 394.416,0.543 394.975,0.841 L394.975,0.841 L394.975,0.841 C395.541,1.142 396.1,1.609 396.649,2.242 L396.649,2.242 L396.649,2.242 C397.206,2.871 397.756,3.677 398.301,4.661 L398.301,4.661 L413.26,32.701 L413.26,32.701 C413.805,33.755 414.076,34.65 414.076,35.389 L414.076,35.389 L414.076,35.389 C414.076,36.353 413.738,37.176 413.064,37.861 L413.064,37.861 L413.064,37.861 C412.388,38.545 411.541,38.887 410.519,38.887 L410.519,38.887 L410.519,38.887 C409.603,38.887 408.826,38.666 408.185,38.227 L408.185,38.227 L408.185,38.227 C407.539,37.793 406.927,37.032 406.345,35.944 L406.345,35.944 L403.05,29.727 L380.407,29.727 L377.163,35.944 L377.163,35.944 C376.563,37.012 375.956,37.771 375.341,38.22 L375.341,38.22 L375.341,38.22 C374.726,38.664 373.97,38.887 373.073,38.887 L373.073,38.887 L373.073,38.887 C372.053,38.887 371.192,38.544 370.491,37.861 L370.491,37.861 L370.491,37.861 C369.787,37.177 369.434,36.354 369.434,35.39 L369.434,35.39 Z M391.756,8.218 L384.131,22.726 L399.381,22.726 L391.756,8.218 L391.756,8.218 Z M425.908,31.096 L425.908,31.096 L425.908,7.894 L425.908,7.894 C425.908,6.79 425.961,5.844 426.066,5.055 L426.066,5.055 L426.066,5.055 C426.171,4.266 426.363,3.6 426.644,3.056 L426.644,3.056 L426.644,3.056 C426.923,2.512 427.242,2.079 427.597,1.76 L427.597,1.76 L427.597,1.76 C427.947,1.446 428.435,1.2 429.06,1.026 L429.06,1.026 L429.06,1.026 C429.685,0.852 430.324,0.737 430.974,0.682 L430.974,0.682 L430.974,0.682 C431.624,0.631 432.46,0.607 433.48,0.607 L433.48,0.607 L452.109,0.607 L452.109,0.607 C455.927,0.607 458.998,1.541 461.318,3.408 L461.318,3.408 L461.318,3.408 C463.64,5.275 464.802,7.852 464.802,11.137 L464.802,11.137 L464.802,11.137 C464.802,13.174 464.296,14.899 463.284,16.312 L463.284,16.312 L463.284,16.312 C462.268,17.725 461.085,18.676 459.735,19.166 L459.735,19.166 L459.735,19.27 L459.735,19.27 C461.581,19.87 463.067,20.933 464.192,22.46 L464.192,22.46 L464.192,22.46 C465.319,23.982 465.881,25.745 465.881,27.748 L465.881,27.748 L465.881,27.748 C465.881,31.152 464.658,33.773 462.211,35.611 L462.211,35.611 L462.211,35.611 C459.77,37.443 456.488,38.359 452.371,38.359 L452.371,38.359 L433.478,38.359 L433.478,38.359 C432.248,38.359 431.267,38.32 430.537,38.24 L430.537,38.24 L430.537,38.24 C429.807,38.16 429.105,37.985 428.435,37.716 L428.435,37.716 L428.435,37.716 C427.769,37.442 427.275,37.037 426.949,36.502 L426.949,36.502 L426.949,36.502 C426.625,35.969 426.369,35.267 426.183,34.398 L426.183,34.398 L426.183,34.398 C426,33.53 425.908,32.429 425.908,31.096 L425.908,31.096 Z M433.48,22.723 L433.48,29.725 L433.48,29.725 C433.48,30.075 433.484,30.317 433.488,30.452 L433.488,30.452 L433.488,30.452 C433.498,30.582 433.537,30.739 433.601,30.924 L433.601,30.924 L433.601,30.924 C433.662,31.109 433.767,31.226 433.915,31.277 L433.915,31.277 L433.915,31.277 C434.065,31.332 434.27,31.359 434.53,31.359 L434.53,31.359 L452.372,31.359 L452.372,31.359 C456.155,31.359 458.046,29.919 458.046,27.038 L458.046,27.038 L458.046,27.038 C458.046,24.162 456.155,22.725 452.372,22.725 L452.372,22.725 L433.48,22.725 L433.48,22.723 Z M433.48,9.242 L433.48,15.721 L451.847,15.721 L451.847,15.721 C453.622,15.721 454.966,15.365 455.876,14.65 L455.876,14.65 L455.876,14.65 C456.792,13.941 457.251,12.945 457.251,11.662 L457.251,11.662 L457.251,11.662 C457.251,10.344 456.802,9.344 455.907,8.659 L455.907,8.659 L455.907,8.659 C455.011,7.975 453.567,7.633 451.575,7.633 L451.575,7.633 L434.53,7.633 L434.53,7.633 C434.27,7.633 434.065,7.66 433.915,7.716 L433.915,7.716 L433.915,7.716 C433.767,7.766 433.661,7.881 433.601,8.061 L433.601,8.061 L433.601,8.061 C433.537,8.235 433.497,8.387 433.488,8.518 L433.488,8.518 L433.488,8.518 C433.484,8.645 433.48,8.887 433.48,9.242 L433.48,9.242 L433.48,9.242 Z" id="Shape" fill="#000000" fill-rule="nonzero" mask="url(#mask-4)"></path>
                            </g>
                        </g>
                    </g>
                </g>
            </g>
        </g>
    </g>
</svg>