<?xml version="1.0" encoding="utf-8"?>
<!-- Generator: Adobe Illustrator 16.0.0, SVG Export Plug-In . SVG Version: 6.00 Build 0)  -->
<!DOCTYPE svg PUBLIC "-//W3C//DTD SVG 1.1//EN" "http://www.w3.org/Graphics/SVG/1.1/DTD/svg11.dtd">
<svg version="1.1" id="Layer_1" xmlns="http://www.w3.org/2000/svg" xmlns:xlink="http://www.w3.org/1999/xlink" x="0px" y="0px"
	 width="4592.13px" height="6803.15px" viewBox="0 0 4592.13 6803.15" enable-background="new 0 0 4592.13 6803.15"
	 xml:space="preserve">
<g>
	<path fill="#E51B23" d="M2350.451,3374.514L2350.451,3374.514L2350.451,3374.514c0,14.98-5.324,27.772-15.973,38.379l0,0l0,0
		c-10.66,10.615-23.496,15.924-38.508,15.924l0,0l0,0c-15.043,0-27.874-5.309-38.492-15.924l0,0l0,0
		c-10.619-10.606-15.928-23.399-15.928-38.379l0,0v-47.064l0,0c5.031,2.896,9.569,6.597,13.612,11.104l0,0l0,0
		c5.001-5.627,11.015-10.103,18.042-13.43l0,0l0,0c7.038-3.316,14.626-4.975,22.765-4.975l0,0l0,0
		c15.012,0,27.848,5.313,38.508,15.94l0,0l0,0C2345.127,3346.727,2350.451,3359.535,2350.451,3374.514L2350.451,3374.514z
		 M2268.791,3374.514L2268.791,3374.514L2268.791,3374.514c0,7.505,2.649,13.902,7.949,19.189l0,0l0,0
		c5.299,5.288,11.709,7.931,19.23,7.931l0,0l0,0c7.491,0,13.907-2.644,19.247-7.931l0,0l0,0c5.33-5.288,7.994-11.684,7.994-19.189
		l0,0l0,0c0-7.474-2.664-13.876-7.994-19.204l0,0l0,0c-5.34-5.318-11.756-7.978-19.247-7.978l0,0l0,0
		c-7.521,0-13.932,2.659-19.23,7.978l0,0l0,0C2271.44,3360.638,2268.791,3367.04,2268.791,3374.514L2268.791,3374.514z"/>
	<g>
		<defs>
			<rect id="SVGID_1_" x="2025" y="3444.34" width="542.002" height="38.81"/>
		</defs>
		<clipPath id="SVGID_2_">
			<use xlink:href="#SVGID_1_"  overflow="visible"/>
		</clipPath>
		<path clip-path="url(#SVGID_2_)" d="M2101.837,3475.362L2101.837,3475.362v-23.202l0,0c0-1.104,0.052-2.05,0.158-2.839l0,0l0,0
			c0.105-0.789,0.298-1.455,0.578-1.999l0,0l0,0c0.28-0.544,0.598-0.977,0.953-1.296l0,0l0,0c0.35-0.314,0.838-0.56,1.463-0.734l0,0
			l0,0c0.625-0.174,1.263-0.289,1.914-0.344l0,0l0,0c0.651-0.051,1.486-0.075,2.507-0.075l0,0h18.629l0,0
			c3.818,0,6.888,0.934,9.209,2.801l0,0l0,0c2.322,1.867,3.483,4.444,3.483,7.729l0,0l0,0c0,2.037-0.505,3.762-1.516,5.175l0,0l0,0
			c-1.016,1.413-2.199,2.364-3.55,2.854l0,0v0.104l0,0c1.846,0.6,3.333,1.663,4.458,3.19l0,0l0,0
			c1.126,1.522,1.688,3.285,1.688,5.288l0,0l0,0c0,3.404-1.223,6.025-3.67,7.863l0,0l0,0c-2.442,1.832-5.722,2.748-9.84,2.748l0,0
			h-18.892l0,0c-1.23,0-2.211-0.039-2.942-0.119l0,0l0,0c-0.73-0.08-1.431-0.255-2.102-0.524l0,0l0,0
			c-0.666-0.274-1.161-0.679-1.486-1.214l0,0l0,0c-0.325-0.533-0.581-1.235-0.766-2.104l0,0l0,0
			C2101.929,3477.795,2101.837,3476.695,2101.837,3475.362L2101.837,3475.362z M2109.41,3466.989v7.002l0,0
			c0,0.35,0.003,0.592,0.008,0.727l0,0l0,0c0.01,0.13,0.047,0.287,0.112,0.472l0,0l0,0c0.061,0.185,0.166,0.302,0.315,0.353l0,0l0,0
			c0.15,0.055,0.355,0.082,0.615,0.082l0,0h17.841l0,0c3.783,0,5.674-1.44,5.674-4.321l0,0l0,0c0-2.876-1.892-4.313-5.674-4.313l0,0
			H2109.41L2109.41,3466.989z M2109.41,3453.507v6.479h18.366l0,0c1.776,0,3.12-0.356,4.03-1.071l0,0l0,0
			c0.916-0.709,1.374-1.705,1.374-2.988l0,0l0,0c0-1.318-0.448-2.318-1.344-3.003l0,0l0,0c-0.896-0.684-2.339-1.026-4.331-1.026l0,0
			h-17.045l0,0c-0.26,0-0.465,0.027-0.615,0.083l0,0l0,0c-0.15,0.05-0.255,0.165-0.315,0.345l0,0l0,0
			c-0.064,0.174-0.103,0.326-0.112,0.457l0,0l0,0C2109.413,3452.911,2109.41,3453.153,2109.41,3453.507L2109.41,3453.507
			L2109.41,3453.507z M2151.253,3479.391L2151.253,3479.391v-27.231l0,0c0-1.104,0.055-2.05,0.165-2.839l0,0l0,0
			c0.105-0.789,0.297-1.455,0.578-1.999l0,0l0,0c0.28-0.544,0.595-0.977,0.946-1.296l0,0l0,0c0.355-0.314,0.846-0.56,1.471-0.734
			l0,0l0,0c0.621-0.174,1.256-0.289,1.907-0.344l0,0l0,0c0.656-0.051,1.491-0.075,2.507-0.075l0,0h16.205l0,0
			c3.798,0,6.862,1.091,9.194,3.272l0,0l0,0c2.331,2.188,3.497,5.141,3.497,8.86l0,0l0,0c0,2.756-0.738,5.087-2.214,6.995l0,0l0,0
			c-1.481,1.902-3.46,3.275-5.937,4.119l0,0l6.65,8.028l0,0c0.631,0.773,1.083,1.428,1.358,1.962l0,0l0,0
			c0.271,0.534,0.405,1.108,0.405,1.723l0,0l0,0c0,0.934-0.355,1.72-1.065,2.359l0,0l0,0c-0.716,0.639-1.563,0.959-2.544,0.959l0,0
			l0,0c-0.761,0-1.451-0.176-2.072-0.525l0,0l0,0c-0.625-0.349-1.316-1.016-2.071-1.999l0,0l-9.029-11.481h-12.376v10.246l0,0
			c0,1.158-0.343,2.074-1.028,2.748l0,0l0,0c-0.686,0.674-1.609,1.012-2.77,1.012l0,0l0,0c-1.161,0-2.079-0.338-2.754-1.012l0,0l0,0
			C2151.593,3481.465,2151.253,3480.549,2151.253,3479.391L2151.253,3479.391z M2158.826,3453.507v8.636h15.649l0,0
			c3.783,0,5.674-1.713,5.674-5.138l0,0l0,0c0-3.405-1.892-5.108-5.674-5.108l0,0h-14.591l0,0c-0.265,0-0.473,0.027-0.623,0.083l0,0
			l0,0c-0.145,0.05-0.25,0.165-0.315,0.345l0,0l0,0c-0.06,0.174-0.095,0.326-0.105,0.457l0,0l0,0
			C2158.831,3452.911,2158.826,3453.153,2158.826,3453.507L2158.826,3453.507L2158.826,3453.507z M2195.536,3479.653
			L2195.536,3479.653L2195.536,3479.653c0-0.669,0.29-1.565,0.871-2.688l0,0l14.853-28.04l0,0c1.021-1.862,2.042-3.091,3.062-3.685
			l0,0l0,0c1.021-0.6,2.199-0.899,3.535-0.899l0,0l0,0c0.63,0,1.184,0.053,1.659,0.158l0,0l0,0c0.475,0.104,0.996,0.307,1.561,0.605
			l0,0l0,0c0.561,0.301,1.118,0.768,1.674,1.401l0,0l0,0c0.556,0.629,1.105,1.435,1.651,2.419l0,0l14.958,28.04l0,0
			c0.546,1.054,0.818,1.949,0.818,2.688l0,0l0,0c0,0.964-0.338,1.787-1.013,2.472l0,0l0,0c-0.68,0.684-1.529,1.026-2.544,1.026l0,0
			l0,0c-0.916,0-1.696-0.221-2.342-0.66l0,0l0,0c-0.641-0.434-1.251-1.195-1.831-2.283l0,0l-3.295-6.217h-22.645l-3.242,6.217l0,0
			c-0.601,1.068-1.208,1.827-1.824,2.276l0,0l0,0c-0.616,0.444-1.371,0.667-2.267,0.667l0,0l0,0c-1.021,0-1.884-0.343-2.589-1.026
			l0,0l0,0C2195.886,3481.44,2195.536,3480.617,2195.536,3479.653L2195.536,3479.653z M2217.857,3452.481l-7.625,14.508h15.251
			L2217.857,3452.481L2217.857,3452.481z M2245.56,3447.846L2245.56,3447.846L2245.56,3447.846c0-0.964,0.343-1.791,1.028-2.479l0,0
			l0,0c0.691-0.685,1.543-1.026,2.56-1.026l0,0l0,0c0.916,0,1.691,0.225,2.327,0.674l0,0l0,0c0.63,0.45,1.236,1.219,1.816,2.308l0,0
			l14.598,27.695l14.59-27.695l0,0c0.596-1.073,1.206-1.838,1.832-2.292l0,0l0,0c0.625-0.459,1.386-0.689,2.282-0.689l0,0l0,0
			c1.021,0,1.879,0.342,2.574,1.026l0,0l0,0c0.696,0.688,1.043,1.516,1.043,2.479l0,0l0,0c0,0.664-0.291,1.558-0.871,2.681l0,0
			l-14.861,28.048l0,0c-1.016,1.857-2.034,3.085-3.055,3.685l0,0l0,0c-1.021,0.594-2.199,0.892-3.535,0.892l0,0l0,0
			c-0.635,0-1.191-0.053-1.667-0.158l0,0l0,0c-0.475-0.104-0.993-0.307-1.554-0.606l0,0l0,0c-0.565-0.294-1.125-0.759-1.681-1.393
			l0,0l0,0c-0.551-0.634-1.099-1.44-1.644-2.419l0,0l-14.966-28.048l0,0C2245.833,3449.479,2245.56,3448.584,2245.56,3447.846
			L2245.56,3447.846z M2295.591,3479.653L2295.591,3479.653L2295.591,3479.653c0-0.669,0.29-1.565,0.871-2.688l0,0l14.854-28.04l0,0
			c1.021-1.862,2.042-3.091,3.062-3.685l0,0l0,0c1.021-0.6,2.199-0.899,3.535-0.899l0,0l0,0c0.637,0,1.191,0.053,1.667,0.158l0,0
			l0,0c0.476,0.104,0.993,0.307,1.554,0.605l0,0l0,0c0.564,0.301,1.123,0.768,1.674,1.401l0,0l0,0
			c0.555,0.629,1.105,1.435,1.65,2.419l0,0l14.959,28.04l0,0c0.545,1.054,0.818,1.949,0.818,2.688l0,0l0,0
			c0,0.964-0.338,1.787-1.014,2.472l0,0l0,0c-0.676,0.684-1.523,1.026-2.545,1.026l0,0l0,0c-0.915,0-1.693-0.221-2.334-0.66l0,0l0,0
			c-0.645-0.434-1.258-1.195-1.838-2.283l0,0l-3.295-6.217h-22.645l-3.242,6.217l0,0c-0.601,1.068-1.209,1.827-1.824,2.276l0,0l0,0
			c-0.615,0.444-1.371,0.667-2.267,0.667l0,0l0,0c-1.021,0-1.882-0.343-2.582-1.026l0,0l0,0
			C2295.944,3481.44,2295.591,3480.617,2295.591,3479.653L2295.591,3479.653z M2317.912,3452.481l-7.625,14.508h15.252
			L2317.912,3452.481L2317.912,3452.481z M2349.409,3475.362L2349.409,3475.362v-27.254l0,0c0-1.158,0.338-2.074,1.014-2.748l0,0
			l0,0c0.676-0.68,1.596-1.02,2.762-1.02l0,0l0,0c1.162,0,2.084,0.34,2.77,1.02l0,0l0,0c0.686,0.674,1.029,1.59,1.029,2.748l0,0
			v25.883l0,0c0,0.35,0.004,0.592,0.014,0.727l0,0l0,0c0.006,0.13,0.041,0.287,0.105,0.472l0,0l0,0
			c0.061,0.185,0.166,0.302,0.316,0.353l0,0l0,0c0.148,0.055,0.354,0.082,0.615,0.082l0,0h22.17l0,0
			c1.176,0,2.102,0.297,2.777,0.891l0,0l0,0c0.682,0.6,1.021,1.469,1.021,2.607l0,0l0,0c0,1.143-0.34,2.012-1.021,2.605l0,0l0,0
			c-0.676,0.6-1.602,0.898-2.777,0.898l0,0h-23.221l0,0c-1.232,0-2.213-0.039-2.943-0.119l0,0l0,0
			c-0.73-0.08-1.43-0.255-2.102-0.524l0,0l0,0c-0.664-0.274-1.16-0.679-1.486-1.214l0,0l0,0c-0.324-0.533-0.58-1.235-0.766-2.104
			l0,0l0,0C2349.503,3477.795,2349.409,3476.695,2349.409,3475.362L2349.409,3475.362z M2393.844,3479.652L2393.844,3479.652
			L2393.844,3479.652c0-0.669,0.291-1.565,0.871-2.688l0,0l14.854-28.04l0,0c1.021-1.862,2.041-3.091,3.062-3.685l0,0l0,0
			c1.021-0.6,2.199-0.899,3.535-0.899l0,0l0,0c0.635,0,1.19,0.053,1.666,0.158l0,0l0,0c0.475,0.104,0.993,0.307,1.553,0.605l0,0l0,0
			c0.566,0.301,1.124,0.768,1.674,1.401l0,0l0,0c0.557,0.629,1.106,1.435,1.652,2.419l0,0l14.958,28.04l0,0
			c0.546,1.054,0.817,1.949,0.817,2.688l0,0l0,0c0,0.964-0.338,1.787-1.012,2.472l0,0l0,0c-0.676,0.684-1.524,1.026-2.545,1.026l0,0
			l0,0c-0.916,0-1.693-0.221-2.334-0.66l0,0l0,0c-0.646-0.434-1.259-1.195-1.84-2.283l0,0l-3.295-6.217h-22.644l-3.243,6.217l0,0
			c-0.6,1.068-1.207,1.827-1.822,2.276l0,0l0,0c-0.616,0.444-1.371,0.667-2.268,0.667l0,0l0,0c-1.021,0-1.881-0.343-2.582-1.026l0,0
			l0,0C2394.197,3481.439,2393.844,3480.616,2393.844,3479.652L2393.844,3479.652z M2416.166,3452.48l-7.626,14.508h15.251
			L2416.166,3452.48L2416.166,3452.48z M2450.318,3475.358L2450.318,3475.358v-23.202l0,0c0-1.104,0.053-2.05,0.158-2.839l0,0l0,0
			c0.104-0.789,0.297-1.455,0.578-1.999l0,0l0,0c0.279-0.544,0.598-0.977,0.953-1.296l0,0l0,0c0.35-0.314,0.838-0.56,1.463-0.734
			l0,0l0,0c0.625-0.174,1.264-0.289,1.914-0.344l0,0l0,0c0.65-0.051,1.486-0.075,2.506-0.075l0,0h18.629l0,0
			c3.818,0,6.889,0.934,9.209,2.801l0,0l0,0c2.322,1.867,3.483,4.444,3.483,7.729l0,0l0,0c0,2.037-0.505,3.762-1.517,5.175l0,0l0,0
			c-1.016,1.413-2.199,2.364-3.55,2.854l0,0v0.104l0,0c1.847,0.6,3.333,1.663,4.458,3.19l0,0l0,0
			c1.127,1.522,1.689,3.285,1.689,5.288l0,0l0,0c0,3.404-1.224,6.025-3.67,7.863l0,0l0,0c-2.442,1.832-5.723,2.748-9.84,2.748l0,0
			h-18.893l0,0c-1.23,0-2.211-0.039-2.941-0.119l0,0l0,0c-0.73-0.08-1.432-0.255-2.102-0.524l0,0l0,0
			c-0.666-0.274-1.16-0.679-1.486-1.214l0,0l0,0c-0.324-0.533-0.58-1.235-0.766-2.104l0,0l0,0
			C2450.41,3477.792,2450.318,3476.691,2450.318,3475.358L2450.318,3475.358z M2457.891,3466.985v7.002l0,0
			c0,0.35,0.004,0.592,0.008,0.727l0,0l0,0c0.01,0.13,0.048,0.287,0.113,0.472l0,0l0,0c0.061,0.185,0.165,0.302,0.314,0.353l0,0l0,0
			c0.15,0.055,0.355,0.082,0.615,0.082l0,0h17.842l0,0c3.782,0,5.674-1.44,5.674-4.321l0,0l0,0c0-2.876-1.892-4.313-5.674-4.313l0,0
			H2457.891L2457.891,3466.985z M2457.891,3453.503v6.479h18.367l0,0c1.775,0,3.119-0.356,4.029-1.071l0,0l0,0
			c0.916-0.709,1.375-1.705,1.375-2.988l0,0l0,0c0-1.318-0.449-2.318-1.344-3.003l0,0l0,0c-0.896-0.684-2.34-1.026-4.332-1.026l0,0
			h-17.045l0,0c-0.26,0-0.465,0.027-0.615,0.083l0,0l0,0c-0.149,0.05-0.254,0.165-0.314,0.345l0,0l0,0
			c-0.064,0.174-0.104,0.326-0.113,0.457l0,0l0,0C2457.895,3452.907,2457.891,3453.149,2457.891,3453.503L2457.891,3453.503
			L2457.891,3453.503z"/>
	</g>
</g>
</svg>
