<svg width="96px" height="96px" viewBox="0 0 96 96" version="1.1" xmlns="http://www.w3.org/2000/svg" xmlns:xlink="http://www.w3.org/1999/xlink">
  <g id="Page-1" stroke="none" stroke-width="1" fill="none" fill-rule="evenodd">
      <path d="M0,48 L0,6 C3.29619777,8.19127592 5.62953111,9.85794259 7,11 C8.21864749,12.0155396 9.93507222,13.7094639 12.1492742,16.0817729 C20.9406021,6.21433063 33.7445837,0 48,0 C74.509668,0 96,21.490332 96,48 C96,74.509668 74.509668,96 48,96 C21.490332,96 0,74.509668 0,48 Z M48,72 C61.254834,72 72,61.254834 72,48 C72,34.745166 61.254834,24 48,24 C34.745166,24 24,34.745166 24,48 C24,61.254834 34.745166,72 48,72 Z" id="Combined-Shape" fill="#E51B23"></path>
  </g>
</svg>